<svg xmlns="http://www.w3.org/2000/svg" xmlns:xlink="http://www.w3.org/1999/xlink" version="1.1" width="1000" height="1000" viewBox="0 0 1000 1000" xml:space="preserve">
<desc>Created with Fabric.js 3.5.0</desc>
<defs>
</defs>
<g transform="matrix(6.402 0 0 6.402 499.9965 499.9977)" id="469644">
<polygon style="stroke: none; stroke-width: 1; stroke-dasharray: none; stroke-linecap: butt; stroke-dashoffset: 0; stroke-linejoin: miter; stroke-miterlimit: 4; is-custom-font: none; font-file-url: none; fill: rgb(224,129,25); fill-rule: nonzero; opacity: 1;" vector-effect="non-scaling-stroke" points="-18,10 -18,26 -40,48 -71,48 -71,-48 -40,-48 0,-8 40,-48 71,-48 71,48 40,48 18,26 18,10 40,32 56,32 56,-32 40,-32 0,8 -40,-32 -56,-32 -56,32 -40,32 "/>
</g>
<g transform="matrix(1 0 0 1 466.3073 904.9968)" style="" id="964479">
		
<path xml:space="preserve" font-family="Abel" font-size="144" font-style="normal" font-weight="normal" style="stroke: none; stroke-width: 1; stroke-dasharray: none; stroke-linecap: butt; stroke-dashoffset: 0; stroke-linejoin: miter; stroke-miterlimit: 4; is-custom-font: none; font-file-url: none; fill: rgb(224,129,25); fill-rule: nonzero; opacity: 1; white-space: pre;" d="M-223.31 45.24L-232.38 45.24L-232.38-0.82L-270.98-0.82L-270.98 45.24L-280.05 45.24L-280.05-55.59L-270.98-55.59L-270.98-9.47L-232.38-9.47L-232.38-55.59L-223.31-55.59L-223.31 45.24Z"/><path xml:space="preserve" font-family="Abel" font-size="144" font-style="normal" font-weight="normal" style="stroke: none; stroke-width: 1; stroke-dasharray: none; stroke-linecap: butt; stroke-dashoffset: 0; stroke-linejoin: miter; stroke-miterlimit: 4; is-custom-font: none; font-file-url: none; fill: rgb(224,129,25); fill-rule: nonzero; opacity: 1; white-space: pre;" d="M-145.78 25.48L-145.78 25.48Q-145.78 29.84-147.44 33.70Q-149.09 37.57-151.97 40.45Q-154.85 43.34-158.72 44.99Q-162.59 46.64-166.95 46.64L-166.95 46.64L-172.71 46.64Q-177.07 46.64-180.94 44.99Q-184.81 43.34-187.69 40.45Q-190.57 37.57-192.23 33.70Q-193.88 29.84-193.88 25.48L-193.88 25.48L-193.88-7.01Q-193.88-11.37-192.23-15.23Q-190.57-19.10-187.69-21.98Q-184.81-24.87-180.94-26.52Q-177.07-28.17-172.71-28.17L-172.71-28.17L-166.95-28.17Q-162.59-28.17-158.72-26.52Q-154.85-24.87-151.97-21.98Q-149.09-19.10-147.44-15.23Q-145.78-11.37-145.78-7.01L-145.78-7.01L-145.78 25.48ZM-154.43 25.97L-154.43-7.50Q-154.43-10.10-155.42-12.38Q-156.40-14.67-158.09-16.36Q-159.78-18.05-162.06-19.03Q-164.35-20.01-166.95-20.01L-166.95-20.01L-172.71-20.01Q-175.32-20.01-177.60-19.03Q-179.89-18.05-181.57-16.36Q-183.26-14.67-184.25-12.38Q-185.23-10.10-185.23-7.50L-185.23-7.50L-185.23 25.97Q-185.23 28.57-184.25 30.86Q-183.26 33.14-181.57 34.83Q-179.89 36.52-177.60 37.50Q-175.32 38.49-172.71 38.49L-172.71 38.49L-166.95 38.49Q-164.35 38.49-162.06 37.50Q-159.78 36.52-158.09 34.83Q-156.40 33.14-155.42 30.86Q-154.43 28.57-154.43 25.97L-154.43 25.97Z"/><path xml:space="preserve" font-family="Abel" font-size="144" font-style="normal" font-weight="normal" style="stroke: none; stroke-width: 1; stroke-dasharray: none; stroke-linecap: butt; stroke-dashoffset: 0; stroke-linejoin: miter; stroke-miterlimit: 4; is-custom-font: none; font-file-url: none; fill: rgb(224,129,25); fill-rule: nonzero; opacity: 1; white-space: pre;" d="M-69.74 45.24L-72.62 45.24L-77.40 37.92Q-80.36 41.93-84.78 44.29Q-89.21 46.64-94.49 46.64L-94.49 46.64L-96.67 46.64Q-101.03 46.64-104.89 44.99Q-108.76 43.34-111.64 40.45Q-114.53 37.57-116.18 33.70Q-117.83 29.84-117.83 25.48L-117.83 25.48L-117.83-26.76L-109.18-26.76L-109.18 25.97Q-109.18 28.57-108.20 30.86Q-107.21 33.14-105.53 34.83Q-103.84 36.52-101.55 37.50Q-99.27 38.49-96.67 38.49L-96.67 38.49L-90.90 38.49Q-88.30 38.49-86.02 37.50Q-83.73 36.52-82.04 34.83Q-80.36 33.14-79.37 30.86Q-78.39 28.57-78.39 25.97L-78.39 25.97L-78.39-26.76L-69.74-26.76L-69.74 45.24Z"/><path xml:space="preserve" font-family="Abel" font-size="144" font-style="normal" font-weight="normal" style="stroke: none; stroke-width: 1; stroke-dasharray: none; stroke-linecap: butt; stroke-dashoffset: 0; stroke-linejoin: miter; stroke-miterlimit: 4; is-custom-font: none; font-file-url: none; fill: rgb(224,129,25); fill-rule: nonzero; opacity: 1; white-space: pre;" d="M-11.97-18.54L-20.62-18.54Q-23.22-18.54-25.51-17.55Q-27.79-16.57-29.48-14.88Q-31.17-13.19-32.15-10.91Q-33.14-8.62-33.14-6.02L-33.14-6.02L-33.14 45.24L-41.79 45.24L-41.79-26.76L-38.90-26.76L-34.19-19.45Q-31.24-23.46-26.77-25.81Q-22.31-28.17-17.04-28.17L-17.04-28.17L-11.97-28.17L-11.97-18.54Z"/><path xml:space="preserve" font-family="Abel" font-size="144" font-style="normal" font-weight="normal" style="stroke: none; stroke-width: 1; stroke-dasharray: none; stroke-linecap: butt; stroke-dashoffset: 0; stroke-linejoin: miter; stroke-miterlimit: 4; is-custom-font: none; font-file-url: none; fill: rgb(224,129,25); fill-rule: nonzero; opacity: 1; white-space: pre;" d="M21.75 45.24L13.10 45.24L13.10-55.59L21.75-55.59L21.75 45.24Z"/><path xml:space="preserve" font-family="Abel" font-size="144" font-style="normal" font-weight="normal" style="stroke: none; stroke-width: 1; stroke-dasharray: none; stroke-linecap: butt; stroke-dashoffset: 0; stroke-linejoin: miter; stroke-miterlimit: 4; is-custom-font: none; font-file-url: none; fill: rgb(224,129,25); fill-rule: nonzero; opacity: 1; white-space: pre;" d="M100.68-26.76L64.25 74.06L55.89 74.06L68.68 39.05L45.34-26.76L53.99-26.76L72.76 27.80L73.04 31.53L73.32 27.80L92.03-26.76L100.68-26.76Z"/><path xml:space="preserve" font-family="Abel" font-size="144" font-style="normal" font-weight="normal" style="stroke: none; stroke-width: 1; stroke-dasharray: none; stroke-linecap: butt; stroke-dashoffset: 0; stroke-linejoin: miter; stroke-miterlimit: 4; is-custom-font: none; font-file-url: none; fill: rgb(224,129,25); fill-rule: nonzero; opacity: 1; white-space: pre;" d="M194.02 45.24L184.95 45.24L184.95-23.88L184.32-19.59L160.90 45.24L156.12 45.24L132.50-19.59L131.93-23.88L131.93 45.24L122.86 45.24L122.86-55.59L127.57-55.59L158.16 27.10L158.44 30.82L158.72 27.10L189.24-55.59L194.02-55.59L194.02 45.24Z"/><path xml:space="preserve" font-family="Abel" font-size="144" font-style="normal" font-weight="normal" style="stroke: none; stroke-width: 1; stroke-dasharray: none; stroke-linecap: butt; stroke-dashoffset: 0; stroke-linejoin: miter; stroke-miterlimit: 4; is-custom-font: none; font-file-url: none; fill: rgb(224,129,25); fill-rule: nonzero; opacity: 1; white-space: pre;" d="M282.93 21.89L282.93 21.89Q282.93 27.03 281.00 31.53Q279.07 36.03 275.69 39.40Q272.32 42.78 267.82 44.71Q263.32 46.64 258.18 46.64L258.18 46.64L251.01 46.64Q245.88 46.64 241.34 44.71Q236.81 42.78 233.43 39.40Q230.06 36.03 228.12 31.53Q226.19 27.03 226.19 21.89L226.19 21.89L226.19-32.25Q226.19-37.38 228.12-41.88Q230.06-46.38 233.43-49.76Q236.81-53.13 241.34-55.06Q245.88-57.00 251.01-57.00L251.01-57.00L258.18-57.00Q263.32-57.00 267.82-55.06Q272.32-53.13 275.69-49.76Q279.07-46.38 281.00-41.88Q282.93-37.38 282.93-32.25L282.93-32.25L282.93-28.17L273.86-26.76L273.86-32.25Q273.86-35.62 272.60-38.54Q271.33-41.46 269.15-43.64Q266.97-45.82 264.05-47.08Q261.14-48.35 257.76-48.35L257.76-48.35L251.43-48.35Q248.06-48.35 245.14-47.08Q242.22-45.82 240.01-43.64Q237.79-41.46 236.53-38.54Q235.26-35.62 235.26-32.25L235.26-32.25L235.26 21.89Q235.26 25.27 236.53 28.19Q237.79 31.10 240.01 33.32Q242.22 35.53 245.14 36.80Q248.06 38.06 251.43 38.06L251.43 38.06L257.76 38.06Q261.14 38.06 264.05 36.80Q266.97 35.53 269.15 33.32Q271.33 31.10 272.60 28.19Q273.86 25.27 273.86 21.89L273.86 21.89L273.86 16.41L282.93 17.88L282.93 21.89Z"/></g>
</svg>