<svg xmlns="http://www.w3.org/2000/svg" xmlns:xlink="http://www.w3.org/1999/xlink" version="1.1" width="1000" height="1000" viewBox="0 0 1000 1000" xml:space="preserve">
<desc>Created with Fabric.js 3.5.0</desc>
<defs>
</defs>
<g transform="matrix(2.9146 0 0 2.9146 227.5736 499.9977)" id="469644">
<polygon style="stroke: none; stroke-width: 1; stroke-dasharray: none; stroke-linecap: butt; stroke-dashoffset: 0; stroke-linejoin: miter; stroke-miterlimit: 4; is-custom-font: none; font-file-url: none; fill: rgb(224,129,25); fill-rule: nonzero; opacity: 1;" vector-effect="non-scaling-stroke" points="-18,10 -18,26 -40,48 -71,48 -71,-48 -40,-48 0,-8 40,-48 71,-48 71,48 40,48 18,26 18,10 40,32 56,32 56,-32 40,-32 0,8 -40,-32 -56,-32 -56,32 -40,32 "/>
</g>
<g transform="matrix(1 0 0 1 719.1575 492.8007)" style="" id="964479">
		
<path xml:space="preserve" font-family="Abel" font-size="109" font-style="normal" font-weight="normal" style="stroke: none; stroke-width: 1; stroke-dasharray: none; stroke-linecap: butt; stroke-dashoffset: 0; stroke-linejoin: miter; stroke-miterlimit: 4; is-custom-font: none; font-file-url: none; fill: rgb(224,129,25); fill-rule: nonzero; opacity: 1; white-space: pre;" d="M-169.03 34.24L-175.90 34.24L-175.90-0.62L-205.12-0.62L-205.12 34.24L-211.98 34.24L-211.98-42.08L-205.12-42.08L-205.12-7.17L-175.90-7.17L-175.90-42.08L-169.03-42.08L-169.03 34.24Z"/><path xml:space="preserve" font-family="Abel" font-size="109" font-style="normal" font-weight="normal" style="stroke: none; stroke-width: 1; stroke-dasharray: none; stroke-linecap: butt; stroke-dashoffset: 0; stroke-linejoin: miter; stroke-miterlimit: 4; is-custom-font: none; font-file-url: none; fill: rgb(224,129,25); fill-rule: nonzero; opacity: 1; white-space: pre;" d="M-110.35 19.29L-110.35 19.29Q-110.35 22.59-111.60 25.51Q-112.85 28.44-115.03 30.62Q-117.22 32.80-120.14 34.06Q-123.07 35.31-126.37 35.31L-126.37 35.31L-130.74 35.31Q-134.03 35.31-136.96 34.06Q-139.89 32.80-142.07 30.62Q-144.25 28.44-145.50 25.51Q-146.76 22.59-146.76 19.29L-146.76 19.29L-146.76-5.30Q-146.76-8.60-145.50-11.53Q-144.25-14.46-142.07-16.64Q-139.89-18.82-136.96-20.07Q-134.03-21.32-130.74-21.32L-130.74-21.32L-126.37-21.32Q-123.07-21.32-120.14-20.07Q-117.22-18.82-115.03-16.64Q-112.85-14.46-111.60-11.53Q-110.35-8.60-110.35-5.30L-110.35-5.30L-110.35 19.29ZM-116.90 19.66L-116.90-5.68Q-116.90-7.64-117.64-9.37Q-118.39-11.10-119.66-12.38Q-120.94-13.66-122.67-14.40Q-124.40-15.15-126.37-15.15L-126.37-15.15L-130.74-15.15Q-132.70-15.15-134.43-14.40Q-136.16-13.66-137.44-12.38Q-138.72-11.10-139.46-9.37Q-140.21-7.64-140.21-5.68L-140.21-5.68L-140.21 19.66Q-140.21 21.63-139.46 23.36Q-138.72 25.09-137.44 26.36Q-136.16 27.64-134.43 28.39Q-132.70 29.13-130.74 29.13L-130.74 29.13L-126.37 29.13Q-124.40 29.13-122.67 28.39Q-120.94 27.64-119.66 26.36Q-118.39 25.09-117.64 23.36Q-116.90 21.63-116.90 19.66L-116.90 19.66Z"/><path xml:space="preserve" font-family="Abel" font-size="109" font-style="normal" font-weight="normal" style="stroke: none; stroke-width: 1; stroke-dasharray: none; stroke-linecap: butt; stroke-dashoffset: 0; stroke-linejoin: miter; stroke-miterlimit: 4; is-custom-font: none; font-file-url: none; fill: rgb(224,129,25); fill-rule: nonzero; opacity: 1; white-space: pre;" d="M-52.79 34.24L-54.97 34.24L-58.59 28.71Q-60.82 31.74-64.18 33.52Q-67.53 35.31-71.52 35.31L-71.52 35.31L-73.17 35.31Q-76.47 35.31-79.40 34.06Q-82.33 32.80-84.51 30.62Q-86.69 28.44-87.94 25.51Q-89.19 22.59-89.19 19.29L-89.19 19.29L-89.19-20.26L-82.65-20.26L-82.65 19.66Q-82.65 21.63-81.90 23.36Q-81.16 25.09-79.88 26.36Q-78.60 27.64-76.87 28.39Q-75.14 29.13-73.17 29.13L-73.17 29.13L-68.81 29.13Q-66.84 29.13-65.11 28.39Q-63.38 27.64-62.10 26.36Q-60.82 25.09-60.08 23.36Q-59.33 21.63-59.33 19.66L-59.33 19.66L-59.33-20.26L-52.79-20.26L-52.79 34.24Z"/><path xml:space="preserve" font-family="Abel" font-size="109" font-style="normal" font-weight="normal" style="stroke: none; stroke-width: 1; stroke-dasharray: none; stroke-linecap: butt; stroke-dashoffset: 0; stroke-linejoin: miter; stroke-miterlimit: 4; is-custom-font: none; font-file-url: none; fill: rgb(224,129,25); fill-rule: nonzero; opacity: 1; white-space: pre;" d="M-9.06-14.03L-15.61-14.03Q-17.58-14.03-19.31-13.29Q-21.04-12.54-22.31-11.26Q-23.59-9.99-24.34-8.26Q-25.08-6.53-25.08-4.56L-25.08-4.56L-25.08 34.24L-31.63 34.24L-31.63-20.26L-29.45-20.26L-25.88-14.72Q-23.65-17.76-20.27-19.54Q-16.89-21.32-12.89-21.32L-12.89-21.32L-9.06-21.32L-9.06-14.03Z"/><path xml:space="preserve" font-family="Abel" font-size="109" font-style="normal" font-weight="normal" style="stroke: none; stroke-width: 1; stroke-dasharray: none; stroke-linecap: butt; stroke-dashoffset: 0; stroke-linejoin: miter; stroke-miterlimit: 4; is-custom-font: none; font-file-url: none; fill: rgb(224,129,25); fill-rule: nonzero; opacity: 1; white-space: pre;" d="M16.46 34.24L9.91 34.24L9.91-42.08L16.46-42.08L16.46 34.24Z"/><path xml:space="preserve" font-family="Abel" font-size="109" font-style="normal" font-weight="normal" style="stroke: none; stroke-width: 1; stroke-dasharray: none; stroke-linecap: butt; stroke-dashoffset: 0; stroke-linejoin: miter; stroke-miterlimit: 4; is-custom-font: none; font-file-url: none; fill: rgb(224,129,25); fill-rule: nonzero; opacity: 1; white-space: pre;" d="M76.21-20.26L48.64 56.06L42.30 56.06L51.99 29.56L34.32-20.26L40.87-20.26L55.08 21.04L55.29 23.86L55.50 21.04L69.66-20.26L76.21-20.26Z"/><path xml:space="preserve" font-family="Abel" font-size="109" font-style="normal" font-weight="normal" style="stroke: none; stroke-width: 1; stroke-dasharray: none; stroke-linecap: butt; stroke-dashoffset: 0; stroke-linejoin: miter; stroke-miterlimit: 4; is-custom-font: none; font-file-url: none; fill: rgb(224,129,25); fill-rule: nonzero; opacity: 1; white-space: pre;" d="M146.86 34.24L140.00 34.24L140.00-18.08L139.52-14.83L121.79 34.24L118.17 34.24L100.29-14.83L99.87-18.08L99.87 34.24L93.00 34.24L93.00-42.08L96.57-42.08L119.72 20.51L119.93 23.33L120.14 20.51L143.24-42.08L146.86-42.08L146.86 34.24Z"/><path xml:space="preserve" font-family="Abel" font-size="109" font-style="normal" font-weight="normal" style="stroke: none; stroke-width: 1; stroke-dasharray: none; stroke-linecap: butt; stroke-dashoffset: 0; stroke-linejoin: miter; stroke-miterlimit: 4; is-custom-font: none; font-file-url: none; fill: rgb(224,129,25); fill-rule: nonzero; opacity: 1; white-space: pre;" d="M214.16 16.57L214.16 16.57Q214.16 20.46 212.70 23.86Q211.24 27.27 208.68 29.82Q206.13 32.38 202.72 33.84Q199.32 35.31 195.43 35.31L195.43 35.31L190.00 35.31Q186.12 35.31 182.68 33.84Q179.25 32.38 176.70 29.82Q174.14 27.27 172.68 23.86Q171.21 20.46 171.21 16.57L171.21 16.57L171.21-24.41Q171.21-28.30 172.68-31.70Q174.14-35.11 176.70-37.66Q179.25-40.22 182.68-41.68Q186.12-43.14 190.00-43.14L190.00-43.14L195.43-43.14Q199.32-43.14 202.72-41.68Q206.13-40.22 208.68-37.66Q211.24-35.11 212.70-31.70Q214.16-28.30 214.16-24.41L214.16-24.41L214.16-21.32L207.30-20.26L207.30-24.41Q207.30-26.96 206.34-29.17Q205.38-31.38 203.73-33.03Q202.08-34.68 199.87-35.64Q197.67-36.60 195.11-36.60L195.11-36.60L190.32-36.60Q187.77-36.60 185.56-35.64Q183.35-34.68 181.67-33.03Q180.00-31.38 179.04-29.17Q178.08-26.96 178.08-24.41L178.08-24.41L178.08 16.57Q178.08 19.13 179.04 21.33Q180.00 23.54 181.67 25.22Q183.35 26.90 185.56 27.85Q187.77 28.81 190.32 28.81L190.32 28.81L195.11 28.81Q197.67 28.81 199.87 27.85Q202.08 26.90 203.73 25.22Q205.38 23.54 206.34 21.33Q207.30 19.13 207.30 16.57L207.30 16.57L207.30 12.42L214.16 13.54L214.16 16.57Z"/></g>
</svg>